<svg xmlns="http://www.w3.org/2000/svg" viewBox="0 0 800 520" preserveAspectRatio="xMidYMid slice" role="img">
<defs><linearGradient id="bg" x2="1" y2="1"><stop stop-color="#273a4e"/><stop offset="1" stop-color="#667b91"/></linearGradient><radialGradient id="light"><stop stop-color="#ffffff" stop-opacity=".19"/><stop offset="1" stop-color="#ffffff" stop-opacity="0"/></radialGradient></defs><rect width="800" height="520" fill="url(#bg)"/><circle cx="650" cy="80" r="320" fill="url(#light)"/><path d="M26 124V38Q26 26 38 26H762Q774 26 774 38V482Q774 494 762 494H38Q26 494 26 482V396" fill="none" stroke="#d3e4db" stroke-width="2" opacity=".65"/><path d="M46 154V48H170M754 366V472H630" fill="none" stroke="#d3e4db" stroke-width="1" opacity=".55"/><circle cx="62" cy="56" r="1" fill="#f7e1b0" opacity="0.20"/><circle cx="159" cy="97" r="2" fill="#f7e1b0" opacity="0.32"/><circle cx="256" cy="220" r="3" fill="#f7e1b0" opacity="0.44"/><circle cx="353" cy="425" r="1" fill="#f7e1b0" opacity="0.56"/><circle cx="450" cy="252" r="2" fill="#f7e1b0" opacity="0.20"/><circle cx="547" cy="161" r="3" fill="#f7e1b0" opacity="0.32"/><circle cx="644" cy="152" r="1" fill="#f7e1b0" opacity="0.44"/><circle cx="741" cy="225" r="2" fill="#f7e1b0" opacity="0.56"/><circle cx="78" cy="380" r="3" fill="#f7e1b0" opacity="0.20"/><circle cx="175" cy="157" r="1" fill="#f7e1b0" opacity="0.32"/><circle cx="272" cy="476" r="2" fill="#f7e1b0" opacity="0.44"/><circle cx="369" cy="417" r="3" fill="#f7e1b0" opacity="0.56"/><circle cx="466" cy="440" r="1" fill="#f7e1b0" opacity="0.20"/><circle cx="563" cy="85" r="2" fill="#f7e1b0" opacity="0.32"/><circle cx="660" cy="272" r="3" fill="#f7e1b0" opacity="0.44"/><circle cx="757" cy="81" r="1" fill="#f7e1b0" opacity="0.56"/><circle cx="94" cy="432" r="2" fill="#f7e1b0" opacity="0.20"/><circle cx="191" cy="405" r="3" fill="#f7e1b0" opacity="0.32"/><circle cx="288" cy="460" r="1" fill="#f7e1b0" opacity="0.44"/><circle cx="385" cy="137" r="2" fill="#f7e1b0" opacity="0.56"/><circle cx="482" cy="356" r="3" fill="#f7e1b0" opacity="0.20"/><circle cx="579" cy="197" r="1" fill="#f7e1b0" opacity="0.32"/><circle cx="676" cy="120" r="2" fill="#f7e1b0" opacity="0.44"/><circle cx="773" cy="125" r="3" fill="#f7e1b0" opacity="0.56"/><circle cx="110" cy="212" r="1" fill="#f7e1b0" opacity="0.20"/><circle cx="207" cy="381" r="2" fill="#f7e1b0" opacity="0.32"/><circle cx="304" cy="172" r="3" fill="#f7e1b0" opacity="0.44"/><circle cx="401" cy="45" r="1" fill="#f7e1b0" opacity="0.56"/><circle cx="498" cy="460" r="2" fill="#f7e1b0" opacity="0.20"/><circle cx="595" cy="37" r="3" fill="#f7e1b0" opacity="0.32"/><circle cx="692" cy="156" r="1" fill="#f7e1b0" opacity="0.44"/><circle cx="29" cy="357" r="2" fill="#f7e1b0" opacity="0.56"/><circle cx="126" cy="180" r="3" fill="#f7e1b0" opacity="0.20"/><circle cx="223" cy="85" r="1" fill="#f7e1b0" opacity="0.32"/><circle cx="320" cy="72" r="2" fill="#f7e1b0" opacity="0.44"/><circle cx="417" cy="141" r="3" fill="#f7e1b0" opacity="0.56"/><circle cx="514" cy="292" r="1" fill="#f7e1b0" opacity="0.20"/><circle cx="640" cy="190" r="135" fill="none" stroke="#c7d5d9" stroke-width="2" opacity=".35"/><ellipse cx="640" cy="190" rx="180" ry="54" fill="none" stroke="#edc5ac" stroke-width="3" opacity=".43"/></svg>