<svg xmlns="http://www.w3.org/2000/svg" viewBox="0 0 800 520" preserveAspectRatio="xMidYMid slice" role="img">
<defs><linearGradient id="bg" x2="1" y2="1"><stop stop-color="#f3d9c2"/><stop offset="1" stop-color="#d4a594"/></linearGradient><radialGradient id="light"><stop stop-color="#ffffff" stop-opacity=".19"/><stop offset="1" stop-color="#ffffff" stop-opacity="0"/></radialGradient></defs><rect width="800" height="520" fill="url(#bg)"/><circle cx="650" cy="80" r="320" fill="url(#light)"/><path d="M26 124V38Q26 26 38 26H762Q774 26 774 38V482Q774 494 762 494H38Q26 494 26 482V396" fill="none" stroke="#fff3de" stroke-width="2" opacity=".65"/><path d="M46 154V48H170M754 366V472H630" fill="none" stroke="#fff3de" stroke-width="1" opacity=".55"/><path d="M520 80l22 -9l22 9v21l-22 11l-22 -11z" fill="none" stroke="#fff9eb" stroke-width="2" opacity=".28"/><path d="M620 145l22 -9l22 9v21l-22 11l-22 -11z" fill="none" stroke="#fff9eb" stroke-width="2" opacity=".28"/><path d="M700 265l22 -9l22 9v21l-22 11l-22 -11z" fill="none" stroke="#fff9eb" stroke-width="2" opacity=".28"/><path d="M510 380l22 -9l22 9v21l-22 11l-22 -11z" fill="none" stroke="#fff9eb" stroke-width="2" opacity=".28"/></svg>