<svg xmlns="http://www.w3.org/2000/svg" viewBox="0 0 256 256" role="img">
<defs><linearGradient id="metal" x2="1" y2="1"><stop stop-color="#b69a66"/><stop offset=".5" stop-color="#fbe8b8"/><stop offset="1" stop-color="#b69a66"/></linearGradient><filter id="soft"><feGaussianBlur stdDeviation="2"/></filter></defs><circle cx="128" cy="128" r="114" fill="none" stroke="#b69a66" stroke-width="12" opacity=".12" filter="url(#soft)"/><circle cx="128" cy="128" r="106" fill="none" stroke="url(#metal)" stroke-width="9"/><circle cx="128" cy="128" r="97" fill="none" stroke="#b69a66" stroke-width="2" opacity=".65"/><g transform="translate(237.1 157.2)"><path d="M0 -10L3 -3L10 0L3 3L0 10L-3 3L-10 0L-3 -3Z" fill="#f1dbab" stroke="#fff8e6" stroke-width="1"/></g><g transform="translate(207.9 207.9)"><path d="M0 -10L3 -3L10 0L3 3L0 10L-3 3L-10 0L-3 -3Z" fill="#f1dbab" stroke="#fff8e6" stroke-width="1"/></g><g transform="translate(157.2 237.1)"><path d="M0 -10L3 -3L10 0L3 3L0 10L-3 3L-10 0L-3 -3Z" fill="#f1dbab" stroke="#fff8e6" stroke-width="1"/></g><g transform="translate(98.8 237.1)"><path d="M0 -10L3 -3L10 0L3 3L0 10L-3 3L-10 0L-3 -3Z" fill="#f1dbab" stroke="#fff8e6" stroke-width="1"/></g><g transform="translate(48.1 207.9)"><path d="M0 -10L3 -3L10 0L3 3L0 10L-3 3L-10 0L-3 -3Z" fill="#f1dbab" stroke="#fff8e6" stroke-width="1"/></g><g transform="translate(18.9 157.2)"><path d="M0 -10L3 -3L10 0L3 3L0 10L-3 3L-10 0L-3 -3Z" fill="#f1dbab" stroke="#fff8e6" stroke-width="1"/></g><g transform="translate(18.9 98.8)"><path d="M0 -10L3 -3L10 0L3 3L0 10L-3 3L-10 0L-3 -3Z" fill="#f1dbab" stroke="#fff8e6" stroke-width="1"/></g><g transform="translate(48.1 48.1)"><path d="M0 -10L3 -3L10 0L3 3L0 10L-3 3L-10 0L-3 -3Z" fill="#f1dbab" stroke="#fff8e6" stroke-width="1"/></g><g transform="translate(98.8 18.9)"><path d="M0 -10L3 -3L10 0L3 3L0 10L-3 3L-10 0L-3 -3Z" fill="#f1dbab" stroke="#fff8e6" stroke-width="1"/></g><g transform="translate(157.2 18.9)"><path d="M0 -10L3 -3L10 0L3 3L0 10L-3 3L-10 0L-3 -3Z" fill="#f1dbab" stroke="#fff8e6" stroke-width="1"/></g><g transform="translate(207.9 48.1)"><path d="M0 -10L3 -3L10 0L3 3L0 10L-3 3L-10 0L-3 -3Z" fill="#f1dbab" stroke="#fff8e6" stroke-width="1"/></g><g transform="translate(237.1 98.8)"><path d="M0 -10L3 -3L10 0L3 3L0 10L-3 3L-10 0L-3 -3Z" fill="#f1dbab" stroke="#fff8e6" stroke-width="1"/></g></svg>